<svg xmlns="http://www.w3.org/2000/svg" viewBox="0 0 153.3 210.7">
  <title>Logo</title>
  <g id="Layer_2" data-name="Layer 2">
    <g id="Layer_2-2" data-name="Layer 2">
      <path class="cls-1" d="M121.1,21.5h-21L110.6.5h21ZM101.2,31.9a53.5,53.5,0,0,1,20.1,20.9H142l10.5-21Zm12,83.9c-9.3,12.7-23.5,20.8-39.3,20.8h31.4c14.1,0,25.5,11.7,25.5,26.2s-11.4,26.2-25.5,26.2H21.5V173.5a47.1,47.1,0,0,1,47.2-47.2,47.1,47.1,0,0,0,47.2-47.2c0-26.1-23.4-47.2-52.4-47.2H.5v94.3a69.4,69.4,0,0,1,21-21V52.9H63.4c17.4,0,31.4,11.7,31.4,26.2a26.2,26.2,0,0,1-26.2,26.2A68.1,68.1,0,0,0,.5,173.5v36.7H105.3c26.1,0,47.2-20.7,47.2-46.4C152.5,139.8,135.5,119.9,113.2,115.9Z"/>
    </g>
  </g>
</svg>
